# xmcd
#
# Track frame offsets: 
#        150
#        22505
#        42380
#        65852
#        77517
#        97492
#        118305
#        134695
#        154520
#        174500
#
# Disc length: 2545 seconds
#
# Revision: 2
# Processed by: cddbd v1.5.2PL0 Copyright (c) Steve Scherf et al.
# Submitted via: ExactAudioCopyFreeDBPlugin 1.0
#
DISCID=8709ef0a
DTITLE=吉田拓郎 - サマルカンド・ブルー
DYEAR=1986
DGENRE=Folk
TTITLE0=レノン症候群
TTITLE1=サマルカンド・ブルー
TTITLE2=パラレル
TTITLE3=ロンリー・ストリート・キャフェ
TTITLE4=七つの夜と七つの酒
TTITLE5=時は蠍のように
TTITLE6=風のダイアローグ
TTITLE7=君の瞳に入りたい
TTITLE8=初夏 ’76
TTITLE9=人生キャラバン
EXTD=
EXTT0=
EXTT1=
EXTT2=
EXTT3=
EXTT4=
EXTT5=
EXTT6=
EXTT7=
EXTT8=
EXTT9=
PLAYORDER=
